<svg width="151" height="53" viewBox="0 0 151 53" fill="none" xmlns="http://www.w3.org/2000/svg">
<path d="M45.6047 38.5301V34.9828H46.062L48.2515 37.8409V34.9828H48.6894V38.5301H48.2248L46.0353 35.6382V38.5301H45.6047Z" fill="#051D3F"/>
<path d="M52.6038 34.9828V35.3563H50.7282V36.5468H52.5163V36.9179H50.7282V38.1566H52.6428V38.5301H50.2659V34.9828H52.6038Z" fill="#051D3F"/>
<path d="M53.7619 34.9828H54.2095L54.7131 38.0674L55.7227 34.9828H56.185L57.27 38.0674L57.8393 34.9828H58.265L57.5935 38.5301H56.961L55.9514 35.5587L54.9783 38.5301H54.3531L53.7619 34.9828Z" fill="#051D3F"/>
<path d="M64.2057 38.3903C63.9079 38.501 63.5921 38.5566 63.274 38.5542C61.9765 38.5542 61.3278 37.9381 61.3278 36.7058C61.3278 35.541 61.9538 34.9586 63.2059 34.9586C63.545 34.9562 63.8824 35.0067 64.2057 35.1081V35.5057C63.9021 35.3903 63.5798 35.3307 63.2545 35.3298C62.2814 35.3298 61.7948 35.7901 61.7948 36.7058C61.7948 37.6922 62.2749 38.1847 63.235 38.1831C63.407 38.1801 63.5781 38.1599 63.7459 38.1228V36.9179H64.2082L64.2057 38.3903Z" fill="#051D3F"/>
<path d="M68.0277 34.9828V35.3563H66.152V36.5468H67.9401V36.9179H66.152V38.1566H68.0666V38.5301H65.6873V34.9828H68.0277Z" fill="#051D3F"/>
<path d="M69.485 38.5301V34.9828H69.9472L72.1367 37.8409V34.9828H72.5795V38.5301H72.1172L69.9277 35.6382V38.5301H69.485Z" fill="#051D3F"/>
<path d="M76.484 34.9828V35.3563H74.6058V36.5468H76.3964V36.9179H74.6058V38.1566H76.5229V38.5301H74.1436V34.9828H76.484Z" fill="#051D3F"/>
<path d="M77.9315 38.5301V34.9828H79.4569C80.1381 34.9828 80.4786 35.2663 80.4786 35.8334C80.4786 36.2961 80.1453 36.6359 79.4788 36.8576L80.7097 38.5301H80.121L78.98 36.9348V36.6359C79.6661 36.5275 80.0067 36.2672 80.0067 35.8551C80.0067 35.5338 79.8169 35.3732 79.4374 35.3732H78.4156V38.5397L77.9315 38.5301Z" fill="#051D3F"/>
<path d="M82.0431 38.5301H81.5565L83.077 34.9828H83.5903L85.1157 38.5301H84.6023L84.1401 37.4143H82.9554L83.0843 37.0408H83.9844L83.3154 35.4358L82.0431 38.5301Z" fill="#051D3F"/>
<path d="M88.3659 34.9828V35.3563H87.2395V38.5301H86.7773V35.3563H85.6509V34.9828H88.3659Z" fill="#051D3F"/>
<path d="M90.1733 34.9828H89.7087V38.5301H90.1733V34.9828Z" fill="#051D3F"/>
<path d="M93.4891 38.1831C94.3422 38.1831 94.7696 37.7012 94.7712 36.7372C94.7728 35.7733 94.3495 35.3041 93.5013 35.3298C92.6287 35.3298 92.1924 35.8022 92.1924 36.7468C92.1924 37.6915 92.6287 38.1703 93.5013 38.1831H93.4891ZM91.6913 36.7613C91.6913 35.558 92.2906 34.9571 93.4891 34.9587C94.6877 34.9603 95.2772 35.5612 95.2577 36.7613C95.2577 37.9566 94.6682 38.5543 93.4891 38.5543C92.31 38.5543 91.7107 37.9566 91.6913 36.7613Z" fill="#051D3F"/>
<path d="M96.7029 38.5301V34.9828H97.1651L99.3546 37.8409V34.9828H99.7926V38.5301H99.3401L97.1506 35.6382V38.5301H96.7029Z" fill="#051D3F"/>
<path d="M105.004 38.1831C105.857 38.1831 106.283 37.7012 106.283 36.7372C106.283 35.7732 105.857 35.3009 105.004 35.3202C104.131 35.3202 103.695 35.7925 103.695 36.7372C103.695 37.6819 104.131 38.1638 105.004 38.1831ZM103.206 36.7613C103.206 35.558 103.805 34.9571 105.004 34.9587C106.202 34.9603 106.792 35.5612 106.772 36.7613C106.772 37.9566 106.183 38.5543 105.004 38.5543C103.824 38.5543 103.225 37.9566 103.206 36.7613Z" fill="#051D3F"/>
<path d="M110.555 34.9828V35.3563H108.68V36.5468H110.468V36.9179H108.68V38.5301H108.215V34.9828H110.555Z" fill="#051D3F"/>
<path d="M116.209 34.9828V35.3563H115.083V38.5301H114.62V35.3563H113.494V34.9828H116.209Z" fill="#051D3F"/>
<path d="M119.817 34.9828V35.3563H117.941V36.5468H119.729V36.9179H117.941V38.1566H119.856V38.5301H117.477V34.9828H119.817Z" fill="#051D3F"/>
<path d="M121.391 38.5301H120.904L122.422 34.9828H122.938L124.466 38.5301H123.953L123.488 37.4143H122.305L122.432 37.0408H123.335L122.666 35.4358L121.391 38.5301Z" fill="#051D3F"/>
<path d="M128.38 38.4048C128.056 38.5062 127.718 38.5566 127.378 38.5542C126.128 38.5542 125.502 37.9381 125.5 36.7058C125.5 35.541 126.126 34.9586 127.378 34.9586C127.718 34.9563 128.056 35.0067 128.38 35.1081V35.5057C128.076 35.39 127.753 35.3304 127.427 35.3298C126.454 35.3298 125.967 35.7901 125.967 36.7058C125.967 37.6922 126.454 38.1847 127.427 38.1831C127.753 38.1832 128.076 38.1244 128.38 38.0095V38.4048Z" fill="#051D3F"/>
<path d="M129.859 38.5301V34.9828H130.324V36.5468H132.438V34.9828H132.913V38.5301H132.45V36.9179H130.336V38.5301H129.859Z" fill="#051D3F"/>
<path d="M136.805 34.9828V35.3563H134.932V36.5468H136.722V36.9179H134.932V38.1566H136.849V38.5301H134.47V34.9828H136.805Z" fill="#051D3F"/>
<path d="M138.265 38.5301V34.9828H139.79C140.471 34.9828 140.812 35.2663 140.812 35.8334C140.812 36.2961 140.479 36.6359 139.814 36.8576L141.031 38.5301H140.42L139.279 36.9348V36.6359C139.965 36.5275 140.306 36.2672 140.306 35.8551C140.306 35.5338 140.116 35.3732 139.737 35.3732H138.715V38.5397L138.265 38.5301Z" fill="#051D3F"/>
<path d="M142.201 38.4048V37.983C142.592 38.1186 143.003 38.1863 143.417 38.1831C144.034 38.1831 144.341 37.9597 144.339 37.5131C144.339 37.1324 144.113 36.942 143.661 36.942H143.198C142.449 36.942 142.075 36.6215 142.075 35.978C142.075 35.3346 142.561 34.961 143.515 34.961C143.907 34.9583 144.299 35.0086 144.678 35.1105V35.5322C144.305 35.3968 143.911 35.3291 143.515 35.3322C142.863 35.3322 142.542 35.5491 142.542 35.978C142.542 36.3588 142.761 36.5492 143.201 36.5492H143.663C144.425 36.5492 144.807 36.8697 144.807 37.5131C144.807 38.2072 144.344 38.5542 143.42 38.5542C143.009 38.5572 142.599 38.5069 142.201 38.4048Z" fill="#051D3F"/>
<path d="M45.6047 30.2112V17.61H48.0521L52.3654 27.1724L56.5911 17.61H58.9558V30.2112H56.7663V21.4393L53.319 30.2112H51.3071L47.7844 21.4393V30.2112H45.6047Z" fill="#051D3F"/>
<path d="M64.1692 25.2589V17.61H66.5265V25.2589C66.5265 27.2688 67.5645 28.2737 69.6405 28.2737C71.7165 28.2737 72.7545 27.2688 72.7545 25.2589V17.61H75.1119V25.2589C75.1119 28.6199 73.2881 30.3004 69.6405 30.3004C65.9929 30.3004 64.1692 28.6199 64.1692 25.2589Z" fill="#051D3F"/>
<path d="M90.475 29.6328C89.4484 30.0794 88.1639 30.3028 86.6215 30.3028C82.1322 30.3028 79.8875 28.1146 79.8875 23.7382C79.8875 19.5965 82.1711 17.5256 86.7383 17.5256C88.0113 17.5052 89.2774 17.7143 90.475 18.1425V20.256C89.3501 19.7813 88.1385 19.5417 86.9158 19.5523C83.8603 19.5523 82.3325 20.9476 82.3325 23.7382C82.3325 26.7635 83.7743 28.276 86.658 28.276C87.1516 28.2672 87.6422 28.196 88.1176 28.064V24.3961H90.4774L90.475 29.6328Z" fill="#051D3F"/>
<path d="M96.557 30.2112H94.1364L99.5372 17.61H102.072L107.587 30.2112H105.052L103.593 26.7748H99.3766L100.187 24.748H102.746L100.744 20.015L96.557 30.2112Z" fill="#051D3F"/>
<path d="M114.054 17.61V28.1869H119.106V30.2136H111.696V17.61H114.054Z" fill="#051D3F"/>
<path d="M126.239 17.61H123.882V30.2112H126.239V17.61Z" fill="#051D3F"/>
<path d="M131.453 30.2112V17.61H133.9L138.216 27.1724L142.442 17.61H144.799V30.2112H142.61V21.4393L139.172 30.2112H137.16L133.642 21.4393V30.2112H131.453Z" fill="#051D3F"/>
<path d="M85.7871 13.7879L84.6096 16.2966H86.2834L87.9863 13.7879H85.7871Z" fill="#051D3F"/>
<path d="M23.1213 16.7863C24.3215 14.8628 23.7202 12.3397 21.7784 11.1509C19.8365 9.96205 17.2895 10.5577 16.0893 12.4812C14.8892 14.4048 15.4905 16.9278 17.4323 18.1167C19.3742 19.3055 21.9212 18.7099 23.1213 16.7863Z" fill="#EAB32D"/>
<path d="M17.557 37.906V42.4606L6.19348 36.9709V25.5867L10.3292 27.5845V34.4165L17.557 37.906Z" fill="#051D3F"/>
<path d="M33.0149 25.4348V36.8215L21.6562 42.3088V37.7541L28.884 34.2646V27.4326L33.0149 25.4348Z" fill="#051D3F"/>
<path d="M33.0149 16.5834V21.1381L22.1695 26.3771L21.6562 26.623V33.4525L19.5884 34.4502L17.5229 33.4525V26.623L17.0047 26.3771L6.19586 21.1549V16.5979L17.5229 22.0707L19.5884 23.0684L21.6562 22.0707L33.0149 16.5834Z" fill="#EAB32D"/>
</svg>
